# xmcd CD database file
#
# Track frame offsets:
#	150
#	20062
#	37131
#	51996
#	67656
#	88686
#	111875
#	132612
#	153121
#	173168
#	191884
#	212070
#
# Disc length: 3041 seconds
#
# Revision: 2
# Processed by: cddbd v1.5.1PL0 Copyright (c) Steve Scherf et al.
# Submitted via: CDex 1.50
#
DISCID=ac0bdf0c
DTITLE=David Daor - Baneshama
DYEAR=2001
DGENRE=Country
TTITLE0=Bayam hagadol
TTITLE1=Kol hakoxavin
TTITLE2=Rak ahava
TTITLE3=Simxati
TTITLE4=Im rak tavoi
TTITLE5=Lean ze movil otanu
TTITLE6=Baneshama
TTITLE7=Ohev otax
TTITLE8=Sheket
TTITLE9=Nishar tamim
TTITLE10=Tzoek lashamaim
TTITLE11=At vaani
EXTD=YEAR: 2001
EXTT0=
EXTT1=
EXTT2=
EXTT3=
EXTT4=
EXTT5=
EXTT6=
EXTT7=
EXTT8=
EXTT9=
EXTT10=
EXTT11=
PLAYORDER=
